PathFileType	4	(X/Y/Z)	C:/Users/opensim2020/Desktop/walking_exp_matlab/subject02_walking10_straight_04.trc	
DataRate	CameraRate	NumFrames	NumMarkers	Units	OrigDataRate	OrigDataStartFrame	OrigNumFrames	
100.00	100.00	6	43	mm	100.00	3117	260	
Frame#	Time	LFHD			RFHD			LBHD			RBHD			C7			T10			CLAV			STRN			RBAK			LSHO			LUPA			LELB			LFRM			LWRA			LWRB			LFIN			RSHO			RUPA			RELB			RFRM			RWRA			RWRB			RFIN			LASI			RASI			LPSI			RPSI			LTHI			LKNE			LTIB			LANK			LHEE			LTOE			RTHI			RKNE			RTIB			RANK			RHEE			RTOE			*39			*40			*41			*42			
		X1	Y1	Z1	X2	Y2	Z2	X3	Y3	Z3	X4	Y4	Z4	X5	Y5	Z5	X6	Y6	Z6	X7	Y7	Z7	X8	Y8	Z8	X9	Y9	Z9	X10	Y10	Z10	X11	Y11	Z11	X12	Y12	Z12	X13	Y13	Z13	X14	Y14	Z14	X15	Y15	Z15	X16	Y16	Z16	X17	Y17	Z17	X18	Y18	Z18	X19	Y19	Z19	X20	Y20	Z20	X21	Y21	Z21	X22	Y22	Z22	X23	Y23	Z23	X24	Y24	Z24	X25	Y25	Z25	X26	Y26	Z26	X27	Y27	Z27	X28	Y28	Z28	X29	Y29	Z29	X30	Y30	Z30	X31	Y31	Z31	X32	Y32	Z32	X33	Y33	Z33	X34	Y34	Z34	X35	Y35	Z35	X36	Y36	Z36	X37	Y37	Z37	X38	Y38	Z38	X39	Y39	Z39	X40	Y40	Z40	X41	Y41	Z41	X42	Y42	Z42	X43	Y43	Z43	

66	0.650	-1083.17810	285.67780	1762.47827	-1221.28674	249.46223	1738.99097	-1097.63293	395.33215	1660.44446	-1236.21411	371.25983	1632.37280	-1167.17188	412.14359	1523.05505	-1178.47363	462.36157	1253.77930	-1127.35962	273.25983	1462.20142	-1135.39441	218.18591	1288.43958	-1245.21216	450.47910	1354.96814	-975.91443	378.71396	1496.95911	-905.18152	433.33292	1302.69604	-900.12775	463.35651	1167.27063	-878.61212	493.81226	1041.68335	-879.23407	467.64386	903.26758	-867.46259	519.68982	920.95300	-854.63348	521.28467	854.80005	-1331.63452	291.87234	1501.58704	-1427.45081	267.24487	1314.49280	-1446.90649	214.40811	1177.11877	-1457.36047	150.56824	1074.55908	-1426.31995	74.90227	966.27917	-1469.05542	108.92268	951.42914	-1462.96301	54.24575	904.41656	-1021.99152	246.36060	988.34064	-1278.14453	237.43225	970.76727	-1112.24194	452.22937	1035.39648	-1227.10120	451.90421	1036.01099	-946.50909	264.54715	687.14569	-971.88507	228.67366	489.19916	-965.91278	214.59027	296.46936	-970.01929	121.04715	90.03410	-1027.51501	133.00339	55.99475	-932.33344	-33.48271	89.27930	-1327.39111	354.11362	668.70593	-1278.05530	394.40164	462.18881	-1277.35620	466.54752	287.34091	-1230.50928	514.13635	100.68750	-1173.11938	555.55359	50.34937	-1244.19556	367.48151	38.26825	-1198.51917	376.02502	1799.51392									 
67	0.660	-1082.05542	278.66400	1761.44336	-1219.94958	241.89926	1738.11401	-1096.84875	388.48325	1659.64282	-1235.58337	363.94525	1631.90662	-1166.56921	404.86365	1521.97913	-1177.69446	454.67810	1252.77515	-1126.41772	265.88821	1461.51978	-1133.96912	209.74818	1288.26746	-1244.55627	442.77536	1353.82227	-975.23718	371.82892	1496.25928	-904.92029	426.40689	1301.88220	-899.99866	456.90808	1166.63318	-878.72321	487.98532	1041.31421	-879.51044	462.43216	902.57819	-867.90521	514.31750	920.58337	-855.43530	516.11890	854.10010	-1330.80908	284.42056	1500.70105	-1425.84277	259.46930	1313.23816	-1445.82214	205.43990	1176.45251	-1455.92566	140.74324	1074.35352	-1424.46863	64.19482	966.93195	-1467.17542	98.18246	951.63757	-1460.91870	42.94588	905.11572	-1021.51434	238.69504	987.40131	-1277.53931	230.05978	969.80804	-1111.27673	444.73486	1034.54431	-1226.06372	444.53186	1035.21790	-946.68121	254.82474	686.44476	-971.84204	218.03896	488.87210	-965.38934	201.94406	296.46829	-969.74261	105.99164	91.08691	-1026.73682	118.57170	56.64454	-934.78259	-49.14521	91.37209	-1326.83508	348.75134	668.13440	-1277.48889	390.35806	461.72192	-1276.91199	464.15497	287.63882	-1230.19751	513.51050	101.36890	-1172.87024	555.14618	51.19110	-1244.18652	367.34619	38.00212	-1197.89014	368.29382	1798.95300	-3356.86841	2845.96313	1034.05432						 
68	0.670	-1080.78748	271.51981	1760.50208	-1218.79211	234.28302	1737.42285	-1096.25525	381.48965	1659.39978	-1234.91687	356.56976	1631.45117	-1165.95361	397.53674	1520.95483	-1176.87720	446.97043	1251.76648	-1125.26892	258.42303	1460.82910	-1132.72095	202.04828	1287.76038	-1243.79065	435.02725	1352.58752	-974.59174	364.88138	1495.60986	-904.33856	420.04889	1301.43542	-899.82281	450.42926	1166.10815	-878.73706	481.75894	1040.83044	-879.66235	456.66394	901.94922	-868.03772	508.41971	920.16089	-856.10809	510.76303	853.46368	-1329.94873	276.73438	1499.75757	-1424.94360	251.50662	1312.34875	-1444.68091	196.53389	1175.74561	-1454.07129	131.06142	1074.00159	-1422.57605	53.67556	967.40308	-1465.07483	87.60108	951.55615	-1458.66052	31.95859	905.61450	-1020.85071	230.87698	986.55048	-1276.98938	222.77390	968.78302	-1110.20081	437.05176	1033.67871	-1224.93555	437.03091	1034.52380	-946.50934	245.06212	685.65680	-971.55426	206.91597	488.73798	-964.82434	189.65419	296.53397	-969.72095	92.44615	91.81005	-1026.63159	105.78092	56.91437	-937.36835	-63.20900	92.69386	-1326.13318	343.31689	667.50555	-1276.71521	386.30136	461.35278	-1276.45398	461.75348	287.96066	-1229.85620	512.90985	102.12344	-1172.15417	554.73633	52.05265	-1244.28687	367.26227	37.95923	-1196.92102	360.63907	1798.43005	-3356.78638	2845.98193	1034.04993						 
69	0.680	-1079.85913	264.17654	1759.49207	-1217.43359	226.79214	1736.59900	-1095.51990	374.49274	1658.67578	-1234.10791	349.13550	1630.94446	-1165.30798	390.15097	1519.97314	-1176.01550	439.52960	1250.93347	-1124.28992	250.95462	1460.20300	-1131.53650	194.29906	1287.17261	-1243.00342	427.12610	1351.46899	-973.81903	357.87457	1494.89575	-903.68243	413.03864	1300.84106	-899.39526	443.72058	1165.46704	-878.76044	475.33270	1039.93481	-879.74994	450.49841	901.11615	-868.06628	502.34445	919.60730	-856.62604	505.00980	852.68451	-1328.89807	269.14301	1498.88977	-1423.40552	243.54549	1311.24683	-1443.40015	187.76347	1174.99377	-1452.42859	121.60898	1073.79614	-1420.35645	43.64017	967.60297	-1462.82520	77.31817	951.39404	-1456.28711	21.22605	905.88470	-1019.96198	222.93246	985.62604	-1276.29187	215.35895	967.75598	-1109.07104	429.32443	1032.89832	-1223.74255	429.41199	1033.77002	-946.07855	234.84399	685.21014	-971.00409	195.45146	488.79001	-964.13269	177.63202	296.65036	-970.07489	80.22271	92.15876	-1026.77734	94.14458	57.31107	-939.87604	-75.81610	93.19125	-1325.17395	337.75665	666.92108	-1276.63123	382.21411	461.29919	-1275.90857	459.45239	288.42776	-1229.59070	512.27112	102.96414	-1171.74976	554.14862	52.97256	-1244.32141	367.13528	37.92902	-1195.93860	353.03625	1797.88147	-3360.28784	2845.18481	1034.06116						 
70	0.690	-1078.36133	257.11902	1758.97937	-1216.05725	219.22682	1735.88562	-1094.66858	367.43842	1657.79358	-1233.21802	341.72305	1630.46716	-1164.61267	382.77548	1518.98059	-1175.04480	431.76788	1249.95447	-1123.09265	243.38432	1459.56873	-1130.21741	186.29649	1286.65833	-1242.25073	419.21832	1350.44629	-972.98230	350.67096	1494.18945	-902.95557	406.01419	1300.23071	-898.95044	436.91925	1164.79944	-878.35150	468.77274	1039.60913	-879.65778	444.11761	900.50439	-867.91461	496.01508	918.90155	-856.96368	498.71857	851.89807	-1328.01685	261.16437	1497.96411	-1422.02087	235.53860	1310.19519	-1442.03015	179.07921	1174.18616	-1450.56946	112.24738	1073.16479	-1418.10156	33.54931	967.79877	-1460.44800	67.23003	951.12958	-1453.71948	10.84066	906.04156	-1018.94098	214.82117	984.75378	-1275.34570	207.77817	966.69318	-1107.82532	421.34927	1032.09009	-1222.46497	421.65836	1033.06873	-945.34167	224.76128	684.83270	-970.34973	183.88104	488.91898	-963.37933	165.95284	296.73752	-970.70105	69.19532	92.22667	-1027.34705	83.87921	57.26855	-942.45917	-87.14064	92.82861	-1324.35889	331.92841	666.33191	-1275.96155	378.16556	461.01492	-1275.48242	457.25940	289.02020	-1229.18311	511.71634	103.80237	-1171.88953	553.86987	54.37116	-1244.48987	366.97110	38.10330	-1194.66479	345.53543	1797.44836	-3356.84668	2846.01123	1034.09912						 
71	0.700	-1077.12036	249.86963	1758.18701	-1214.86084	211.62184	1735.31909	-1093.79639	360.24432	1657.24500	-1232.37891	334.29321	1629.95020	-1163.80676	375.28802	1518.05481	-1173.99268	423.77750	1249.02991	-1121.87109	235.79839	1458.99854	-1128.93652	178.15730	1286.04822	-1241.39221	411.24866	1349.42346	-972.03802	343.53763	1493.46936	-902.23114	399.30295	1299.53821	-898.31329	430.08023	1164.20032	-877.54614	461.49390	1038.57947	-879.42584	437.34229	899.72217	-867.65027	489.01285	918.00751	-857.13641	492.06943	850.94507	-1326.86243	253.46042	1497.21118	-1420.57068	227.46477	1309.18530	-1440.45386	170.55159	1173.30957	-1448.59998	103.09507	1072.61011	-1415.65967	23.87253	967.93848	-1457.92249	57.37259	950.74615	-1450.93237	0.70241	905.98425	-1017.76794	206.55554	983.88831	-1274.39551	199.88840	965.42706	-1106.46191	413.25552	1031.29370	-1221.09937	413.71606	1032.37109	-944.31885	214.36322	684.53906	-969.58313	172.19135	489.01926	-962.68951	154.75558	296.76123	-971.62518	59.33900	91.78306	-1027.86975	74.60165	56.91293	-945.03735	-97.33691	91.77115	-1323.43677	326.25433	666.00195	-1275.46436	374.12271	460.94113	-1275.07385	455.06305	289.77927	-1229.23645	511.08673	105.06981	-1171.51160	553.60803	55.77863	-1244.64050	366.84839	38.09005	-1193.52307	337.95770	1796.85022	-3356.91772	2845.91650	1034.26941						 
